{
  "accessors": [
    {
      "bufferView": 3,
      "componentType": 5126,
      "count": 4341,
      "max": [
        53.86164093017578,
        280.0560302734375,
        44.4993896484375
      ],
      "min": [
        -44.49939727783203,
        83.65038299560547,
        -44.499385833740234
      ],
      "type": "VEC3"
    },
    {
      "bufferView": 3,
      "byteOffset": 52092,
      "componentType": 5126,
      "count": 4341,
      "max": [
        1.0,
        1.0,
        1.0
      ],
      "min": [
        -1.0,
        -1.0,
        -1.0
      ],
      "type": "VEC3"
    },
    {
      "bufferView": 2,
      "componentType": 5126,
      "count": 4341,
      "max": [
        -0.00709300022572279,
        1.9978100061416626
      ],
      "min": [
        -0.99720299243927,
        -0.9204080104827881
      ],
      "type": "VEC2"
    },
    {
      "bufferView": 1,
      "componentType": 5125,
      "count": 11841,
      "type": "SCALAR"
    },
    {
      "bufferView": 3,
      "byteOffset": 104184,
      "componentType": 5126,
      "count": 4754,
      "max": [
        37.485877990722656,
        279.9765625,
        45.46934509277344
      ],
      "min": [
        -45.46935272216797,
        86.57177734375,
        -45.469383239746094
      ],
      "type": "VEC3"
    },
    {
      "bufferView": 3,
      "byteOffset": 161232,
      "componentType": 5126,
      "count": 4754,
      "max": [
        1.0,
        1.0,
        1.0
      ],
      "min": [
        -1.0,
        -1.0,
        -1.0
      ],
      "type": "VEC3"
    },
    {
      "bufferView": 2,
      "byteOffset": 34728,
      "componentType": 5126,
      "count": 4754,
      "max": [
        0.9976990222930908,
        1.8773969411849976
      ],
      "min": [
        -0.00811500009149313,
        0.002835988998413086
      ],
      "type": "VEC2"
    },
    {
      "bufferView": 1,
      "byteOffset": 47364,
      "componentType": 5125,
      "count": 19143,
      "type": "SCALAR"
    },
    {
      "bufferView": 3,
      "byteOffset": 218280,
      "componentType": 5126,
      "count": 1685,
      "max": [
        53.86163330078125,
        277.355224609375,
        43.201019287109375
      ],
      "min": [
        -43.20103073120117,
        83.65038299560547,
        -43.20104217529297
      ],
      "type": "VEC3"
    },
    {
      "bufferView": 3,
      "byteOffset": 238500,
      "componentType": 5126,
      "count": 1685,
      "max": [
        1.0,
        1.0,
        1.0
      ],
      "min": [
        -1.0,
        -1.0,
        -1.0
      ],
      "type": "VEC3"
    },
    {
      "bufferView": 2,
      "byteOffset": 72760,
      "componentType": 5126,
      "count": 1685,
      "max": [
        0.9953640103340149,
        -0.0027060508728027344
      ],
      "min": [
        0.007841999642550945,
        -1.860936164855957
      ],
      "type": "VEC2"
    },
    {
      "bufferView": 1,
      "byteOffset": 123936,
      "componentType": 5125,
      "count": 4092,
      "type": "SCALAR"
    },
    {
      "bufferView": 5,
      "componentType": 5126,
      "count": 13,
      "max": [
        100.00001525878906,
        5.293018023877494e-09,
        0.0,
        0.0,
        8.320559817314929e-14,
        100.00000762939453,
        7.560940673556615e-08,
        0.0,
        9.512503007513828e-10,
        0.0,
        100.00001525878906,
        0.0,
        5.822318485115829e-07,
        0.0,
        0.9079999923706055,
        1.0
      ],
      "min": [
        1.0,
        -8.320561172567645e-14,
        -9.51249856662173e-10,
        0.0,
        -5.293017135699074e-09,
        1.0,
        0.0,
        0.0,
        0.0,
        -7.560942094642087e-08,
        1.0,
        0.0,
        -43.08815383911133,
        -233.72476196289063,
        -3.7466862201690674,
        1.0
      ],
      "type": "MAT4"
    },
    {
      "bufferView": 0,
      "componentType": 5123,
      "count": 4341,
      "type": "VEC4"
    },
    {
      "bufferView": 4,
      "componentType": 5126,
      "count": 4341,
      "max": [
        1.0,
        0.0,
        0.0,
        0.0
      ],
      "min": [
        1.0,
        0.0,
        0.0,
        0.0
      ],
      "type": "VEC4"
    },
    {
      "bufferView": 0,
      "byteOffset": 34728,
      "componentType": 5123,
      "count": 4754,
      "type": "VEC4"
    },
    {
      "bufferView": 4,
      "byteOffset": 69456,
      "componentType": 5126,
      "count": 4754,
      "max": [
        1.0,
        0.0,
        0.0,
        0.0
      ],
      "min": [
        1.0,
        0.0,
        0.0,
        0.0
      ],
      "type": "VEC4"
    },
    {
      "bufferView": 0,
      "byteOffset": 72760,
      "componentType": 5123,
      "count": 1685,
      "type": "VEC4"
    },
    {
      "bufferView": 4,
      "byteOffset": 145520,
      "componentType": 5126,
      "count": 1685,
      "max": [
        1.0,
        0.0,
        0.0,
        0.0
      ],
      "min": [
        1.0,
        0.0,
        0.0,
        0.0
      ],
      "type": "VEC4"
    }
  ],
  "asset": {
    "extras": {
      "author": "DAVID.3D.ART (https://sketchfab.com/david3dart)",
      "license": "CC-BY-NC-4.0 (http://creativecommons.org/licenses/by-nc/4.0/)",
      "source": "https://sketchfab.com/3d-models/elevator-from-portal-2-original-322c3ba1df8c4ce0b4e89482ca91fae6",
      "title": "Elevator - From Portal 2 (Original)"
    },
    "generator": "Sketchfab-14.48.0",
    "version": "2.0"
  },
  "bufferViews": [
    {
      "buffer": 0,
      "byteLength": 86240,
      "byteStride": 8,
      "name": "shortBufferViews",
      "target": 34962
    },
    {
      "buffer": 0,
      "byteLength": 140304,
      "byteOffset": 86240,
      "name": "floatBufferViews",
      "target": 34963
    },
    {
      "buffer": 0,
      "byteLength": 86240,
      "byteOffset": 226544,
      "byteStride": 8,
      "name": "floatBufferViews",
      "target": 34962
    },
    {
      "buffer": 0,
      "byteLength": 258720,
      "byteOffset": 312784,
      "byteStride": 12,
      "name": "floatBufferViews",
      "target": 34962
    },
    {
      "buffer": 0,
      "byteLength": 172480,
      "byteOffset": 571504,
      "byteStride": 16,
      "name": "floatBufferViews",
      "target": 34962
    },
    {
      "buffer": 0,
      "byteLength": 832,
      "byteOffset": 743984,
      "name": "floatBufferViews"
    }
  ],
  "buffers": [
    {
      "byteLength": 744816,
      "uri": "scene.bin"
    }
  ],
  "images": [
    {
      "uri": "textures/elevator_main_b_baseColor.jpeg"
    },
    {
      "uri": "textures/elevator_main_b_emissive.png"
    },
    {
      "uri": "textures/elevator_main_c_baseColor.jpeg"
    },
    {
      "uri": "textures/elevator_main_c_emissive.png"
    },
    {
      "uri": "textures/elevator_main_a_baseColor.jpeg"
    },
    {
      "uri": "textures/elevator_main_a_metallicRoughness.png"
    }
  ],
  "materials": [
    {
      "doubleSided": true,
      "emissiveFactor": [
        1.0,
        1.0,
        1.0
      ],
      "emissiveTexture": {
        "index": 1
      },
      "name": "elevator_main_b",
      "pbrMetallicRoughness": {
        "baseColorTexture": {
          "index": 0
        },
        "metallicFactor": 0.059428752544769654,
        "roughnessFactor": 0.17523862929867975
      }
    },
    {
      "doubleSided": true,
      "emissiveFactor": [
        1.0,
        1.0,
        1.0
      ],
      "emissiveTexture": {
        "index": 3
      },
      "name": "elevator_main_c",
      "pbrMetallicRoughness": {
        "baseColorTexture": {
          "index": 2
        },
        "metallicFactor": 0.0
      }
    },
    {
      "doubleSided": true,
      "name": "elevator_main_a",
      "occlusionTexture": {
        "index": 5
      },
      "pbrMetallicRoughness": {
        "baseColorTexture": {
          "index": 4
        },
        "metallicFactor": 0.0,
        "metallicRoughnessTexture": {
          "index": 5
        }
      }
    }
  ],
  "meshes": [
    {
      "name": "elevator_b_model_elevator_main_b_0",
      "primitives": [
        {
          "attributes": {
            "JOINTS_0": 13,
            "NORMAL": 1,
            "POSITION": 0,
            "TEXCOORD_0": 2,
            "WEIGHTS_0": 14
          },
          "indices": 3,
          "material": 0,
          "mode": 4
        }
      ]
    },
    {
      "name": "elevator_b_model_elevator_main_c_0",
      "primitives": [
        {
          "attributes": {
            "JOINTS_0": 15,
            "NORMAL": 5,
            "POSITION": 4,
            "TEXCOORD_0": 6,
            "WEIGHTS_0": 16
          },
          "indices": 7,
          "material": 1,
          "mode": 4
        }
      ]
    },
    {
      "name": "elevator_b_model_elevator_main_a_0",
      "primitives": [
        {
          "attributes": {
            "JOINTS_0": 17,
            "NORMAL": 9,
            "POSITION": 8,
            "TEXCOORD_0": 10,
            "WEIGHTS_0": 18
          },
          "indices": 11,
          "material": 2,
          "mode": 4
        }
      ]
    }
  ],
  "nodes": [
    {
      "children": [
        1
      ],
      "matrix": [
        0.00022575371258426458,
        0.0,
        0.0,
        0.0,
        0.0,
        5.0127393921132097e-20,
        -0.00022575371258426458,
        0.0,
        0.0,
        0.00022575371258426458,
        5.0127393921132097e-20,
        0.0,
        0.0,
        0.0,
        0.0,
        1.0
      ],
      "name": "Sketchfab_model"
    },
    {
      "children": [
        2
      ],
      "matrix": [
        1.0,
        0.0,
        0.0,
        0.0,
        0.0,
        0.0,
        1.0,
        0.0,
        0.0,
        -1.0,
        0.0,
        0.0,
        0.0,
        0.0,
        0.0,
        1.0
      ],
      "name": "7689f659b6f848cb848492f9fca40dae.fbx"
    },
    {
      "children": [
        3
      ],
      "name": "RootNode"
    },
    {
      "children": [
        4,
        6,
        7,
        8,
        5
      ],
      "name": "Object_3"
    },
    {
      "children": [
        9
      ],
      "name": "_rootJoint"
    },
    {
      "matrix": [
        100.00001192092897,
        7.528311348791077e-23,
        0.0,
        0.0,
        -7.528310774426504e-23,
        100.00000429153354,
        -7.549790799035683e-06,
        0.0,
        -5.683717331419246e-30,
        7.549791375039055e-06,
        100.000011920929,
        0.0,
        4.5776367187500014e-05,
        -0.0014958499486965593,
        -1.2489919072320495e-06,
        1.0
      ],
      "name": "Object_5"
    },
    {
      "mesh": 0,
      "name": "Object_6",
      "skin": 0
    },
    {
      "mesh": 1,
      "name": "Object_7",
      "skin": 0
    },
    {
      "mesh": 2,
      "name": "Object_8",
      "skin": 0
    },
    {
      "children": [
        10,
        12,
        14,
        19,
        21
      ],
      "name": "elevator_root_00",
      "rotation": [
        -3.774895063202166e-08,
        -0.0,
        0.0,
        1.0
      ],
      "scale": [
        100.0,
        99.99999237060547,
        100.0
      ],
      "translation": [
        0.0,
        5.115936766276443e-26,
        6.776263578034403e-19
      ]
    },
    {
      "children": [
        11
      ],
      "name": "longbrake_02_01",
      "translation": [
        43.08815383911133,
        123.7247543334961,
        -0.9077169895172119
      ]
    },
    {
      "name": "longbrake_02_end_02",
      "translation": [
        0.0,
        0.4691162109375,
        1.1102230246251565e-16
      ]
    },
    {
      "children": [
        13
      ],
      "name": "brake_disc_03",
      "translation": [
        34.69001388549805,
        7.3314208984375,
        3.7466859817504883
      ]
    },
    {
      "name": "brake_disc_end_04",
      "translation": [
        0.0,
        0.4691162109375,
        4.440892098500626e-16
      ]
    },
    {
      "children": [
        15,
        17
      ],
      "name": "elevator_main_05",
      "translation": [
        3.999999989900971e-06,
        -1.266021728515625,
        3.999999989900971e-06
      ]
    },
    {
      "children": [
        16
      ],
      "name": "spinnydoor_left_06",
      "translation": [
        -3.999999989900971e-06,
        -9.891326904296875,
        -3.999999989900971e-06
      ]
    },
    {
      "name": "spinnydoor_left_end_07",
      "rotation": [
        -6.617444900424222e-24,
        -0.0,
        0.0,
        1.0
      ],
      "translation": [
        -8.470329472543003e-22,
        0.4691162109375,
        -3.1763735522036263e-22
      ]
    },
    {
      "children": [
        18
      ],
      "name": "spinnydoor_right_08",
      "translation": [
        -3.999999989900971e-06,
        -9.891326904296875,
        -3.999999989900971e-06
      ]
    },
    {
      "name": "spinnydoor_right_end_09",
      "rotation": [
        -6.617444900424222e-24,
        -0.0,
        0.0,
        1.0
      ],
      "translation": [
        -8.470329472543003e-22,
        0.4691162109375,
        -3.1763735522036263e-22
      ]
    },
    {
      "children": [
        20
      ],
      "name": "longbrake_01_010",
      "translation": [
        43.08815383911133,
        53.03740692138672,
        -0.9079999923706055
      ]
    },
    {
      "name": "longbrake_01_end_011",
      "translation": [
        0.0,
        0.4691162109375,
        0.0
      ]
    },
    {
      "matrix": [
        1.0,
        0.0,
        0.0,
        0.0,
        0.0,
        1.0000001192092896,
        1.323489058970925e-23,
        0.0,
        0.0,
        -1.3234889011987535e-23,
        1.0,
        0.0,
        0.0,
        3.90962271546624e-43,
        -6.776263578034403e-21,
        1.0
      ],
      "name": "elevator_b_model"
    }
  ],
  "samplers": [
    {
      "magFilter": 9729,
      "minFilter": 9987,
      "wrapS": 10497,
      "wrapT": 10497
    }
  ],
  "scene": 0,
  "scenes": [
    {
      "name": "Sketchfab_Scene",
      "nodes": [
        0
      ]
    }
  ],
  "skins": [
    {
      "inverseBindMatrices": 12,
      "joints": [
        4,
        9,
        10,
        11,
        12,
        13,
        14,
        15,
        16,
        17,
        18,
        19,
        20
      ],
      "skeleton": 4
    }
  ],
  "textures": [
    {
      "sampler": 0,
      "source": 0
    },
    {
      "sampler": 0,
      "source": 1
    },
    {
      "sampler": 0,
      "source": 2
    },
    {
      "sampler": 0,
      "source": 3
    },
    {
      "sampler": 0,
      "source": 4
    },
    {
      "sampler": 0,
      "source": 5
    }
  ]
}
