{
  "accessors": [
    {
      "bufferView": 2,
      "componentType": 5126,
      "count": 3941,
      "max": [
        52.40116882324219,
        -0.0,
        11.341858863830566
      ],
      "min": [
        -5.645352840423584,
        -38.20783615112305,
        -47.889766693115234
      ],
      "type": "VEC3"
    },
    {
      "bufferView": 2,
      "byteOffset": 47292,
      "componentType": 5126,
      "count": 3941,
      "max": [
        1.0,
        1.0,
        1.0
      ],
      "min": [
        -1.0,
        -1.0,
        -1.0
      ],
      "type": "VEC3"
    },
    {
      "bufferView": 1,
      "componentType": 5126,
      "count": 3941,
      "max": [
        1.0,
        1.0
      ],
      "min": [
        0.0,
        -0.00025599999935366213
      ],
      "type": "VEC2"
    },
    {
      "bufferView": 0,
      "componentType": 5125,
      "count": 10215,
      "type": "SCALAR"
    },
    {
      "bufferView": 2,
      "byteOffset": 94584,
      "componentType": 5126,
      "count": 686,
      "max": [
        52.40116882324219,
        -0.0,
        11.341858863830566
      ],
      "min": [
        -5.645352840423584,
        -35.553199768066406,
        -47.889766693115234
      ],
      "type": "VEC3"
    },
    {
      "bufferView": 2,
      "byteOffset": 102816,
      "componentType": 5126,
      "count": 686,
      "max": [
        0.2672481834888458,
        1.0,
        0.9745209813117981
      ],
      "min": [
        -0.2721594572067261,
        -1.0,
        -0.9600374102592468
      ],
      "type": "VEC3"
    },
    {
      "bufferView": 0,
      "byteOffset": 40860,
      "componentType": 5125,
      "count": 2427,
      "type": "SCALAR"
    }
  ],
  "asset": {
    "extras": {
      "author": "Hiren.Delwadia (https://sketchfab.com/Hiren.Delwadia)",
      "license": "CC-BY-4.0 (http://creativecommons.org/licenses/by/4.0/)",
      "source": "https://sketchfab.com/3d-models/round-table-15-16c19a047ea44057824c5cb47686580e",
      "title": "Round Table - $15"
    },
    "generator": "Sketchfab-12.65.0",
    "version": "2.0"
  },
  "bufferViews": [
    {
      "buffer": 0,
      "byteLength": 50568,
      "name": "floatBufferViews",
      "target": 34963
    },
    {
      "buffer": 0,
      "byteLength": 31528,
      "byteOffset": 50568,
      "byteStride": 8,
      "name": "floatBufferViews",
      "target": 34962
    },
    {
      "buffer": 0,
      "byteLength": 111048,
      "byteOffset": 82096,
      "byteStride": 12,
      "name": "floatBufferViews",
      "target": 34962
    }
  ],
  "buffers": [
    {
      "byteLength": 193144,
      "uri": "scene.bin"
    }
  ],
  "materials": [
    {
      "doubleSided": true,
      "name": "Mat_0",
      "pbrMetallicRoughness": {
        "metallicFactor": 0.0,
        "roughnessFactor": 0.6
      }
    },
    {
      "doubleSided": true,
      "name": "Turquoise_0_0_0",
      "pbrMetallicRoughness": {
        "metallicFactor": 0.0,
        "roughnessFactor": 0.6
      }
    }
  ],
  "meshes": [
    {
      "name": "Object_0",
      "primitives": [
        {
          "attributes": {
            "NORMAL": 1,
            "POSITION": 0,
            "TEXCOORD_0": 2
          },
          "indices": 3,
          "material": 0,
          "mode": 4
        }
      ]
    },
    {
      "name": "Object_1",
      "primitives": [
        {
          "attributes": {
            "NORMAL": 5,
            "POSITION": 4
          },
          "indices": 6,
          "material": 1,
          "mode": 4
        }
      ]
    }
  ],
  "nodes": [
    {
      "children": [
        1
      ],
      "matrix": [
        2.4424906541753444e-15,
        -2.7755575615628914e-16,
        1.0,
        0.0,
        0.00032517159706912935,
        -0.9999999403953552,
        -6.661338015402041e-16,
        0.0,
        0.9999999403953552,
        0.00032517159706912935,
        -1.94281809049522e-15,
        0.0,
        41.652320861816406,
        -37.37173843383789,
        -4.272593975067147,
        1.0
      ],
      "name": "Sketchfab_model"
    },
    {
      "children": [
        2,
        3
      ],
      "name": "29d64fcc821043c390328cbe44a573bf.obj.cleaner.materialmerger.gles"
    },
    {
      "mesh": 0,
      "name": "Object_2"
    },
    {
      "mesh": 1,
      "name": "Object_3"
    }
  ],
  "scene": 0,
  "scenes": [
    {
      "name": "Sketchfab_Scene",
      "nodes": [
        0
      ]
    }
  ]
}
