{
  "accessors": [
    {
      "bufferView": 2,
      "componentType": 5126,
      "count": 906,
      "max": [
        139.9948272705078,
        -3.1546518802642822,
        140.1581573486328
      ],
      "min": [
        -140.0306396484375,
        -11.361726760864258,
        -139.8673095703125
      ],
      "type": "VEC3"
    },
    {
      "bufferView": 2,
      "byteOffset": 10872,
      "componentType": 5126,
      "count": 906,
      "max": [
        0.9986562132835388,
        0.998677670955658,
        0.9986562132835388
      ],
      "min": [
        -0.9986562132835388,
        -0.998677670955658,
        -0.9986562132835388
      ],
      "type": "VEC3"
    },
    {
      "bufferView": 1,
      "componentType": 5126,
      "count": 906,
      "max": [
        0.5656412243843079,
        0.9975247979164124
      ],
      "min": [
        0.002475247485563159,
        0.0014564021257683635
      ],
      "type": "VEC2"
    },
    {
      "bufferView": 0,
      "componentType": 5125,
      "count": 1728,
      "type": "SCALAR"
    },
    {
      "bufferView": 2,
      "byteOffset": 21744,
      "componentType": 5126,
      "count": 854,
      "max": [
        122.20443725585938,
        -5.903232097625732,
        123.16830444335938
      ],
      "min": [
        -119.4607162475586,
        -15.513083457946777,
        -118.899658203125
      ],
      "type": "VEC3"
    },
    {
      "bufferView": 2,
      "byteOffset": 31992,
      "componentType": 5126,
      "count": 854,
      "max": [
        0.9928110837936401,
        1.0,
        1.0
      ],
      "min": [
        -0.9928110241889954,
        -1.0,
        -1.0
      ],
      "type": "VEC3"
    },
    {
      "bufferView": 1,
      "byteOffset": 7248,
      "componentType": 5126,
      "count": 854,
      "max": [
        0.969514787197113,
        0.9698155522346497
      ],
      "min": [
        0.0002751606225501746,
        0.0009925710037350655
      ],
      "type": "VEC2"
    },
    {
      "bufferView": 0,
      "byteOffset": 6912,
      "componentType": 5125,
      "count": 2256,
      "type": "SCALAR"
    },
    {
      "bufferView": 2,
      "byteOffset": 42240,
      "componentType": 5126,
      "count": 174,
      "max": [
        144.92221069335938,
        -9.67829704284668,
        145.08554077148438
      ],
      "min": [
        -144.95802307128906,
        -30.245452880859375,
        -144.79470825195313
      ],
      "type": "VEC3"
    },
    {
      "bufferView": 2,
      "byteOffset": 44328,
      "componentType": 5126,
      "count": 174,
      "max": [
        0.998637855052948,
        0.9998232126235962,
        0.9995164275169373
      ],
      "min": [
        -0.998637855052948,
        -0.03743557631969452,
        -0.9986377954483032
      ],
      "type": "VEC3"
    },
    {
      "bufferView": 1,
      "byteOffset": 14080,
      "componentType": 5126,
      "count": 174,
      "max": [
        0.6705805063247681,
        0.9334244728088379
      ],
      "min": [
        0.1016218513250351,
        0.15760904550552368
      ],
      "type": "VEC2"
    },
    {
      "bufferView": 0,
      "byteOffset": 15936,
      "componentType": 5125,
      "count": 642,
      "type": "SCALAR"
    },
    {
      "bufferView": 2,
      "byteOffset": 46416,
      "componentType": 5126,
      "count": 3115,
      "max": [
        1160.2020263671875,
        230.3479461669922,
        1166.0302734375
      ],
      "min": [
        -1160.34765625,
        -222.41165161132813,
        -1158.15625
      ],
      "type": "VEC3"
    },
    {
      "bufferView": 2,
      "byteOffset": 83796,
      "componentType": 5126,
      "count": 3115,
      "max": [
        0.9998568296432495,
        0.9998469948768616,
        1.0
      ],
      "min": [
        -0.9998443722724915,
        -0.026564573869109154,
        -1.0
      ],
      "type": "VEC3"
    },
    {
      "bufferView": 1,
      "byteOffset": 15472,
      "componentType": 5126,
      "count": 3115,
      "max": [
        0.9570035338401794,
        0.9483650922775269
      ],
      "min": [
        -1475524.625,
        0.197318434715271
      ],
      "type": "VEC2"
    },
    {
      "bufferView": 0,
      "byteOffset": 18504,
      "componentType": 5125,
      "count": 6570,
      "type": "SCALAR"
    },
    {
      "bufferView": 2,
      "byteOffset": 121176,
      "componentType": 5126,
      "count": 102,
      "max": [
        86.60254669189453,
        100.0,
        100.0
      ],
      "min": [
        -86.60254669189453,
        -31.614280700683594,
        -100.0
      ],
      "type": "VEC3"
    },
    {
      "bufferView": 2,
      "byteOffset": 122400,
      "componentType": 5126,
      "count": 102,
      "max": [
        1.0,
        1.0,
        0.8660255074501038
      ],
      "min": [
        -1.0,
        -1.0,
        -0.8660337328910828
      ],
      "type": "VEC3"
    },
    {
      "bufferView": 1,
      "byteOffset": 40392,
      "componentType": 5126,
      "count": 102,
      "max": [
        1.0,
        1.0
      ],
      "min": [
        -8.940696716308594e-08,
        0.0
      ],
      "type": "VEC2"
    },
    {
      "bufferView": 0,
      "byteOffset": 44784,
      "componentType": 5125,
      "count": 168,
      "type": "SCALAR"
    },
    {
      "bufferView": 2,
      "byteOffset": 123624,
      "componentType": 5126,
      "count": 102,
      "max": [
        86.60254669189453,
        100.0,
        100.0
      ],
      "min": [
        -86.60254669189453,
        -31.614280700683594,
        -100.0
      ],
      "type": "VEC3"
    },
    {
      "bufferView": 2,
      "byteOffset": 124848,
      "componentType": 5126,
      "count": 102,
      "max": [
        1.0,
        1.0,
        0.8660255074501038
      ],
      "min": [
        -1.0,
        -1.0,
        -0.8660337328910828
      ],
      "type": "VEC3"
    },
    {
      "bufferView": 1,
      "byteOffset": 41208,
      "componentType": 5126,
      "count": 102,
      "max": [
        1.0,
        1.0
      ],
      "min": [
        -8.940696716308594e-08,
        0.0
      ],
      "type": "VEC2"
    },
    {
      "bufferView": 0,
      "byteOffset": 45456,
      "componentType": 5125,
      "count": 168,
      "type": "SCALAR"
    },
    {
      "bufferView": 2,
      "byteOffset": 126072,
      "componentType": 5126,
      "count": 102,
      "max": [
        86.60254669189453,
        100.0,
        100.0
      ],
      "min": [
        -86.60254669189453,
        -31.614280700683594,
        -100.0
      ],
      "type": "VEC3"
    },
    {
      "bufferView": 2,
      "byteOffset": 127296,
      "componentType": 5126,
      "count": 102,
      "max": [
        1.0,
        1.0,
        0.8660255074501038
      ],
      "min": [
        -1.0,
        -1.0,
        -0.8660337328910828
      ],
      "type": "VEC3"
    },
    {
      "bufferView": 1,
      "byteOffset": 42024,
      "componentType": 5126,
      "count": 102,
      "max": [
        1.0,
        1.0
      ],
      "min": [
        -8.940696716308594e-08,
        0.0
      ],
      "type": "VEC2"
    },
    {
      "bufferView": 0,
      "byteOffset": 46128,
      "componentType": 5125,
      "count": 168,
      "type": "SCALAR"
    },
    {
      "bufferView": 2,
      "byteOffset": 128520,
      "componentType": 5126,
      "count": 102,
      "max": [
        86.60254669189453,
        100.0,
        100.0
      ],
      "min": [
        -86.60254669189453,
        -31.614280700683594,
        -100.0
      ],
      "type": "VEC3"
    },
    {
      "bufferView": 2,
      "byteOffset": 129744,
      "componentType": 5126,
      "count": 102,
      "max": [
        1.0,
        1.0,
        0.8660255074501038
      ],
      "min": [
        -1.0,
        -1.0,
        -0.8660337328910828
      ],
      "type": "VEC3"
    },
    {
      "bufferView": 1,
      "byteOffset": 42840,
      "componentType": 5126,
      "count": 102,
      "max": [
        1.0,
        1.0
      ],
      "min": [
        -8.940696716308594e-08,
        0.0
      ],
      "type": "VEC2"
    },
    {
      "bufferView": 0,
      "byteOffset": 46800,
      "componentType": 5125,
      "count": 168,
      "type": "SCALAR"
    },
    {
      "bufferView": 2,
      "byteOffset": 130968,
      "componentType": 5126,
      "count": 102,
      "max": [
        86.60254669189453,
        100.0,
        100.0
      ],
      "min": [
        -86.60254669189453,
        -31.614280700683594,
        -100.0
      ],
      "type": "VEC3"
    },
    {
      "bufferView": 2,
      "byteOffset": 132192,
      "componentType": 5126,
      "count": 102,
      "max": [
        1.0,
        1.0,
        0.8660255074501038
      ],
      "min": [
        -1.0,
        -1.0,
        -0.8660337328910828
      ],
      "type": "VEC3"
    },
    {
      "bufferView": 1,
      "byteOffset": 43656,
      "componentType": 5126,
      "count": 102,
      "max": [
        1.0,
        1.0
      ],
      "min": [
        -8.940696716308594e-08,
        0.0
      ],
      "type": "VEC2"
    },
    {
      "bufferView": 0,
      "byteOffset": 47472,
      "componentType": 5125,
      "count": 168,
      "type": "SCALAR"
    }
  ],
  "asset": {
    "extras": {
      "author": "TGRRRR (https://sketchfab.com/Tgrrrr)",
      "license": "CC-BY-4.0 (http://creativecommons.org/licenses/by/4.0/)",
      "source": "https://sketchfab.com/3d-models/volkswagen-rim-c5798e6b29d046c798c38647455dfab2",
      "title": "Volkswagen Rim"
    },
    "generator": "Sketchfab-12.75.0",
    "version": "2.0"
  },
  "bufferViews": [
    {
      "buffer": 0,
      "byteLength": 48144,
      "name": "floatBufferViews",
      "target": 34963
    },
    {
      "buffer": 0,
      "byteLength": 44472,
      "byteOffset": 48144,
      "byteStride": 8,
      "name": "floatBufferViews",
      "target": 34962
    },
    {
      "buffer": 0,
      "byteLength": 133416,
      "byteOffset": 92616,
      "byteStride": 12,
      "name": "floatBufferViews",
      "target": 34962
    }
  ],
  "buffers": [
    {
      "byteLength": 226032,
      "uri": "scene.bin"
    }
  ],
  "extensionsUsed": [
    "KHR_materials_clearcoat"
  ],
  "materials": [
    {
      "doubleSided": true,
      "name": "Material",
      "pbrMetallicRoughness": {
        "baseColorFactor": [
          0.266762,
          0.266762,
          0.266762,
          1.0
        ],
        "metallicFactor": 0.661017,
        "roughnessFactor": 0.5
      }
    },
    {
      "doubleSided": true,
      "name": "Material.001",
      "pbrMetallicRoughness": {
        "baseColorFactor": [
          0.04683746988897704,
          0.04683746988897704,
          0.04683746988897704,
          1.0
        ],
        "roughnessFactor": 0.6584869217402666
      }
    },
    {
      "doubleSided": true,
      "extensions": {
        "KHR_materials_clearcoat": {
          "clearcoatFactor": 1.0,
          "clearcoatRoughnessFactor": 0.04
        }
      },
      "name": "Material.006",
      "pbrMetallicRoughness": {
        "baseColorFactor": [
          0.266762,
          0.266762,
          0.266762,
          1.0
        ],
        "roughnessFactor": 0.16600786730005104
      }
    }
  ],
  "meshes": [
    {
      "name": "Cube.003_Material_0",
      "primitives": [
        {
          "attributes": {
            "NORMAL": 1,
            "POSITION": 0,
            "TEXCOORD_0": 2
          },
          "indices": 3,
          "material": 0,
          "mode": 4
        }
      ]
    },
    {
      "name": "Cube.005_Material_0",
      "primitives": [
        {
          "attributes": {
            "NORMAL": 5,
            "POSITION": 4,
            "TEXCOORD_0": 6
          },
          "indices": 7,
          "material": 0,
          "mode": 4
        }
      ]
    },
    {
      "name": "Cube.009_Material.001_0",
      "primitives": [
        {
          "attributes": {
            "NORMAL": 9,
            "POSITION": 8,
            "TEXCOORD_0": 10
          },
          "indices": 11,
          "material": 1,
          "mode": 4
        }
      ]
    },
    {
      "name": "Cube.001_Material.006_0",
      "primitives": [
        {
          "attributes": {
            "NORMAL": 13,
            "POSITION": 12,
            "TEXCOORD_0": 14
          },
          "indices": 15,
          "material": 2,
          "mode": 4
        }
      ]
    },
    {
      "name": "Cylinder.001_Material.001_0",
      "primitives": [
        {
          "attributes": {
            "NORMAL": 17,
            "POSITION": 16,
            "TEXCOORD_0": 18
          },
          "indices": 19,
          "material": 1,
          "mode": 4
        }
      ]
    },
    {
      "name": "Cylinder.002_Material.001_0",
      "primitives": [
        {
          "attributes": {
            "NORMAL": 21,
            "POSITION": 20,
            "TEXCOORD_0": 22
          },
          "indices": 23,
          "material": 1,
          "mode": 4
        }
      ]
    },
    {
      "name": "Cylinder.003_Material.001_0",
      "primitives": [
        {
          "attributes": {
            "NORMAL": 25,
            "POSITION": 24,
            "TEXCOORD_0": 26
          },
          "indices": 27,
          "material": 1,
          "mode": 4
        }
      ]
    },
    {
      "name": "Cylinder.004_Material.001_0",
      "primitives": [
        {
          "attributes": {
            "NORMAL": 29,
            "POSITION": 28,
            "TEXCOORD_0": 30
          },
          "indices": 31,
          "material": 1,
          "mode": 4
        }
      ]
    },
    {
      "name": "Cylinder.005_Material.001_0",
      "primitives": [
        {
          "attributes": {
            "NORMAL": 33,
            "POSITION": 32,
            "TEXCOORD_0": 34
          },
          "indices": 35,
          "material": 1,
          "mode": 4
        }
      ]
    }
  ],
  "nodes": [
    {
      "children": [
        1
      ],
      "matrix": [
        -1.0,
        -1.6081226229577287e-16,
        -2.2204460492503136e-16,
        0.0,
        -1.6081226229577292e-16,
        1.0,
        0.0,
        0.0,
        2.220446049250313e-16,
        0.0,
        -1.0,
        0.0,
        -54.11552429199219,
        492.9022216796874,
        488.9233398437501,
        1.0
      ],
      "name": "Sketchfab_model"
    },
    {
      "children": [
        2
      ],
      "matrix": [
        1.0,
        0.0,
        0.0,
        0.0,
        0.0,
        0.0,
        1.0,
        0.0,
        0.0,
        -1.0,
        0.0,
        0.0,
        0.0,
        0.0,
        0.0,
        1.0
      ],
      "name": "2ee95711827f4f7592835a9a6e854308.fbx"
    },
    {
      "children": [
        3,
        5,
        7,
        9,
        11,
        13,
        15,
        17,
        19
      ],
      "name": "RootNode"
    },
    {
      "children": [
        4
      ],
      "matrix": [
        0.9405000805854797,
        0.0,
        0.0,
        0.0,
        0.0,
        1.0,
        0.0,
        0.0,
        0.0,
        0.0,
        0.9405000805854797,
        0.0,
        -24.20598602294922,
        598.3101806640625,
        -12.909112930297852,
        1.0
      ],
      "name": "Cube.003"
    },
    {
      "mesh": 0,
      "name": "Cube.003_Material_0"
    },
    {
      "children": [
        6
      ],
      "matrix": [
        0.9405000805854797,
        0.0,
        0.0,
        0.0,
        0.0,
        1.0,
        0.0,
        0.0,
        0.0,
        0.0,
        0.9405000805854797,
        0.0,
        -24.20598602294922,
        597.783203125,
        -12.909112930297852,
        1.0
      ],
      "name": "Cube.005"
    },
    {
      "mesh": 1,
      "name": "Cube.005_Material_0"
    },
    {
      "children": [
        8
      ],
      "matrix": [
        0.9405000805854797,
        0.0,
        0.0,
        0.0,
        0.0,
        1.0,
        0.0,
        0.0,
        0.0,
        0.0,
        0.9405000805854797,
        0.0,
        -24.20598602294922,
        597.86474609375,
        -12.909112930297852,
        1.0
      ],
      "name": "Cube.009"
    },
    {
      "mesh": 2,
      "name": "Cube.009_Material.001_0"
    },
    {
      "children": [
        10
      ],
      "matrix": [
        0.9364939541829519,
        -0.000902777949780703,
        0.3506825612584016,
        0.0,
        0.00025860024194689676,
        0.9999981923017143,
        0.0018837513685497154,
        0.0,
        -0.3506836070369621,
        -0.001673435072898181,
        0.9364924389237301,
        0.0,
        -24.55362892150879,
        497.6387023925781,
        -12.51503849029541,
        1.0
      ],
      "name": "Cube.001"
    },
    {
      "mesh": 3,
      "name": "Cube.001_Material.006_0"
    },
    {
      "children": [
        12
      ],
      "matrix": [
        0.4692911412575664,
        0.0,
        0.16896613555299675,
        0.0,
        0.0,
        0.49878227710723877,
        0.0,
        0.0,
        -0.16896613555299675,
        0.0,
        0.4692911412575664,
        0.0,
        166.0547637939453,
        484.6070861816406,
        140.86654663085938,
        1.0
      ],
      "name": "Cylinder.001"
    },
    {
      "mesh": 4,
      "name": "Cylinder.001_Material.001_0"
    },
    {
      "children": [
        14
      ],
      "matrix": [
        0.3358454066754316,
        0.0,
        0.3687704201414428,
        0.0,
        0.0,
        0.49878227710723877,
        0.0,
        0.0,
        -0.3687704201414428,
        0.0,
        0.3358454066754316,
        0.0,
        180.3297119140625,
        484.6070861816406,
        -147.9265594482422,
        1.0
      ],
      "name": "Cylinder.002"
    },
    {
      "mesh": 5,
      "name": "Cylinder.002_Material.001_0"
    },
    {
      "children": [
        16
      ],
      "matrix": [
        0.2725781880071746,
        0.0,
        0.41771388698367173,
        0.0,
        0.0,
        0.49878227710723877,
        0.0,
        0.0,
        -0.41771388698367173,
        0.0,
        0.2725781880071746,
        0.0,
        -91.9923324584961,
        484.6070861816406,
        -250.04733276367188,
        1.0
      ],
      "name": "Cylinder.003"
    },
    {
      "mesh": 6,
      "name": "Cylinder.003_Material.001_0"
    },
    {
      "children": [
        18
      ],
      "matrix": [
        0.09471710456490288,
        0.0,
        0.48970647336861245,
        0.0,
        0.0,
        0.49878227710723877,
        0.0,
        0.0,
        -0.48970647336861245,
        0.0,
        0.09471710456490288,
        0.0,
        -110.65956115722656,
        484.6070861816406,
        217.7316436767578,
        1.0
      ],
      "name": "Cylinder.004"
    },
    {
      "mesh": 7,
      "name": "Cylinder.004_Material.001_0"
    },
    {
      "children": [
        20
      ],
      "matrix": [
        0.17879821831883766,
        0.0,
        0.4656339303382987,
        0.0,
        0.0,
        0.49878227710723877,
        0.0,
        0.0,
        -0.4656339303382987,
        0.0,
        0.17879821831883766,
        0.0,
        -269.8800964355469,
        484.6070861816406,
        -22.74627685546875,
        1.0
      ],
      "name": "Cylinder.005"
    },
    {
      "mesh": 8,
      "name": "Cylinder.005_Material.001_0"
    }
  ],
  "scene": 0,
  "scenes": [
    {
      "name": "Sketchfab_Scene",
      "nodes": [
        0
      ]
    }
  ]
}
