{
  "accessors": [
    {
      "bufferView": 3,
      "componentType": 5126,
      "count": 1128,
      "max": [
        0.1176970973610878,
        0.1176970899105072,
        0.1154526025056839
      ],
      "min": [
        -0.1176970973610878,
        -0.11769700795412064,
        -0.1154526025056839
      ],
      "type": "VEC3"
    },
    {
      "bufferView": 3,
      "byteOffset": 13536,
      "componentType": 5126,
      "count": 1128,
      "max": [
        1.0,
        1.0,
        1.0
      ],
      "min": [
        -1.0,
        -1.0,
        -1.0
      ],
      "type": "VEC3"
    },
    {
      "bufferView": 2,
      "componentType": 5126,
      "count": 1128,
      "max": [
        1.0000001192092896,
        0.8125001192092896
      ],
      "min": [
        0.0,
        0.5
      ],
      "type": "VEC2"
    },
    {
      "bufferView": 1,
      "componentType": 5125,
      "count": 4608,
      "type": "SCALAR"
    },
    {
      "bufferView": 3,
      "byteOffset": 27072,
      "componentType": 5126,
      "count": 1561,
      "max": [
        0.274138867855072,
        0.5188112258911133,
        0.2812959551811218
      ],
      "min": [
        -0.2812957465648651,
        0.2669449746608734,
        -0.28129589557647705
      ],
      "type": "VEC3"
    },
    {
      "bufferView": 3,
      "byteOffset": 45804,
      "componentType": 5126,
      "count": 1561,
      "max": [
        1.0,
        1.0,
        1.0
      ],
      "min": [
        -1.0,
        -1.0,
        -1.0
      ],
      "type": "VEC3"
    },
    {
      "bufferView": 2,
      "byteOffset": 9024,
      "componentType": 5126,
      "count": 1561,
      "max": [
        1.0000001192092896,
        0.6876978874206543
      ],
      "min": [
        -0.0015811100602149963,
        -0.0006327188457362354
      ],
      "type": "VEC2"
    },
    {
      "bufferView": 1,
      "byteOffset": 18432,
      "componentType": 5125,
      "count": 3816,
      "type": "SCALAR"
    },
    {
      "bufferView": 3,
      "byteOffset": 64536,
      "componentType": 5126,
      "count": 653,
      "max": [
        0.28076061606407166,
        0.15137016773223877,
        0.30353596806526184
      ],
      "min": [
        -0.28076061606407166,
        -0.13440664112567902,
        -0.30353596806526184
      ],
      "type": "VEC3"
    },
    {
      "bufferView": 3,
      "byteOffset": 72372,
      "componentType": 5126,
      "count": 653,
      "max": [
        0.9907221794128418,
        1.0,
        0.98862224817276
      ],
      "min": [
        -0.9907186627388,
        -0.9859984517097473,
        -0.98862224817276
      ],
      "type": "VEC3"
    },
    {
      "bufferView": 2,
      "byteOffset": 21512,
      "componentType": 5126,
      "count": 653,
      "max": [
        0.979597806930542,
        1.0000001192092896
      ],
      "min": [
        -8.940696716308594e-08,
        0.025293372571468353
      ],
      "type": "VEC2"
    },
    {
      "bufferView": 1,
      "byteOffset": 33696,
      "componentType": 5125,
      "count": 2682,
      "type": "SCALAR"
    },
    {
      "bufferView": 3,
      "byteOffset": 80208,
      "componentType": 5126,
      "count": 479,
      "max": [
        0.1590481400489807,
        0.5107624530792236,
        0.057025063782930374
      ],
      "min": [
        -0.1590481400489807,
        0.14883285760879517,
        -0.057025063782930374
      ],
      "type": "VEC3"
    },
    {
      "bufferView": 3,
      "byteOffset": 85956,
      "componentType": 5126,
      "count": 479,
      "max": [
        1.0,
        1.0,
        1.0
      ],
      "min": [
        -1.0,
        -1.0,
        -1.0
      ],
      "type": "VEC3"
    },
    {
      "bufferView": 2,
      "byteOffset": 26736,
      "componentType": 5126,
      "count": 479,
      "max": [
        0.25,
        0.4747066795825958
      ],
      "min": [
        0.04215388000011444,
        0.025293376296758652
      ],
      "type": "VEC2"
    },
    {
      "bufferView": 1,
      "byteOffset": 44424,
      "componentType": 5125,
      "count": 2028,
      "type": "SCALAR"
    },
    {
      "bufferView": 3,
      "byteOffset": 91704,
      "componentType": 5126,
      "count": 4766,
      "max": [
        0.21437910199165344,
        0.820689857006073,
        0.21437910199165344
      ],
      "min": [
        -0.21437910199165344,
        -0.7996723055839539,
        -0.21437910199165344
      ],
      "type": "VEC3"
    },
    {
      "bufferView": 3,
      "byteOffset": 148896,
      "componentType": 5126,
      "count": 4766,
      "max": [
        1.0,
        0.7535023093223572,
        1.0
      ],
      "min": [
        -1.0,
        -1.0,
        -1.0
      ],
      "type": "VEC3"
    },
    {
      "bufferView": 2,
      "byteOffset": 30568,
      "componentType": 5126,
      "count": 4766,
      "max": [
        0.5,
        177.23655700683594
      ],
      "min": [
        0.0,
        0.0
      ],
      "type": "VEC2"
    },
    {
      "bufferView": 1,
      "byteOffset": 52536,
      "componentType": 5125,
      "count": 11868,
      "type": "SCALAR"
    },
    {
      "bufferView": 3,
      "byteOffset": 206088,
      "componentType": 5126,
      "count": 1544,
      "max": [
        0.3095753788948059,
        0.05564141273498535,
        0.3095754384994507
      ],
      "min": [
        -0.30957525968551636,
        -0.12910062074661255,
        -0.3095753490924835
      ],
      "type": "VEC3"
    },
    {
      "bufferView": 3,
      "byteOffset": 224616,
      "componentType": 5126,
      "count": 1544,
      "max": [
        1.0,
        1.0,
        1.0
      ],
      "min": [
        -1.0,
        -1.0,
        -1.0
      ],
      "type": "VEC3"
    },
    {
      "bufferView": 2,
      "byteOffset": 68696,
      "componentType": 5126,
      "count": 1544,
      "max": [
        0.5,
        177.23655700683594
      ],
      "min": [
        0.0,
        154.11874389648438
      ],
      "type": "VEC2"
    },
    {
      "bufferView": 1,
      "byteOffset": 100008,
      "componentType": 5125,
      "count": 2868,
      "type": "SCALAR"
    },
    {
      "bufferView": 3,
      "byteOffset": 243144,
      "componentType": 5126,
      "count": 2278,
      "max": [
        0.17017298936843872,
        0.38181012868881226,
        0.13501082360744476
      ],
      "min": [
        -0.17017319798469543,
        -0.17017310857772827,
        -0.1350107342004776
      ],
      "type": "VEC3"
    },
    {
      "bufferView": 3,
      "byteOffset": 270480,
      "componentType": 5126,
      "count": 2278,
      "max": [
        1.0,
        1.0,
        1.0
      ],
      "min": [
        -1.0,
        -1.0,
        -1.0
      ],
      "type": "VEC3"
    },
    {
      "bufferView": 2,
      "byteOffset": 81048,
      "componentType": 5126,
      "count": 2278,
      "max": [
        1.6916687488555908,
        0.6875001192092896
      ],
      "min": [
        0.0,
        0.5
      ],
      "type": "VEC2"
    },
    {
      "bufferView": 1,
      "byteOffset": 111480,
      "componentType": 5125,
      "count": 6084,
      "type": "SCALAR"
    },
    {
      "bufferView": 3,
      "byteOffset": 297816,
      "componentType": 5126,
      "count": 58,
      "max": [
        0.04777005687355995,
        1.8151471614837646,
        0.04777001962065697
      ],
      "min": [
        -0.04776989668607712,
        0.3763682246208191,
        -0.047769945114851
      ],
      "type": "VEC3"
    },
    {
      "bufferView": 3,
      "byteOffset": 298512,
      "componentType": 5126,
      "count": 58,
      "max": [
        1.0,
        0.0,
        1.0
      ],
      "min": [
        -1.0,
        0.0,
        -1.0
      ],
      "type": "VEC3"
    },
    {
      "bufferView": 2,
      "byteOffset": 99272,
      "componentType": 5126,
      "count": 58,
      "max": [
        1.0000001192092896,
        0.6875000596046448
      ],
      "min": [
        5.960464477539063e-08,
        0.6874999403953552
      ],
      "type": "VEC2"
    },
    {
      "bufferView": 1,
      "byteOffset": 135816,
      "componentType": 5125,
      "count": 144,
      "type": "SCALAR"
    },
    {
      "bufferView": 3,
      "byteOffset": 299208,
      "componentType": 5126,
      "count": 4717,
      "max": [
        0.28446435928344727,
        2.940769672393799,
        0.2844642996788025
      ],
      "min": [
        -0.28446418046951294,
        0.45399245619773865,
        -0.2844642400741577
      ],
      "type": "VEC3"
    },
    {
      "bufferView": 3,
      "byteOffset": 355812,
      "componentType": 5126,
      "count": 4717,
      "max": [
        1.0,
        0.9983914494514465,
        1.0
      ],
      "min": [
        -1.0,
        -0.998391330242157,
        -1.0
      ],
      "type": "VEC3"
    },
    {
      "bufferView": 2,
      "byteOffset": 99736,
      "componentType": 5126,
      "count": 4717,
      "max": [
        0.9750000238418579,
        90.23171997070313
      ],
      "min": [
        0.0,
        0.0
      ],
      "type": "VEC2"
    },
    {
      "bufferView": 1,
      "byteOffset": 136392,
      "componentType": 5125,
      "count": 25980,
      "type": "SCALAR"
    },
    {
      "bufferView": 5,
      "componentType": 5126,
      "count": 3,
      "max": [
        1.0,
        0.0,
        0.0,
        0.0,
        0.0,
        1.0,
        0.0,
        0.0,
        0.0,
        0.0,
        1.0,
        0.0,
        0.0,
        2.9189395904541016,
        3.632158751543102e-08,
        1.0
      ],
      "min": [
        1.0,
        0.0,
        -8.742277657347586e-08,
        0.0,
        0.0,
        -1.0,
        0.0,
        0.0,
        -8.742277657347586e-08,
        0.0,
        -1.0,
        0.0,
        -7.576697669264831e-08,
        -0.47582244873046875,
        -3.632158041000366e-08,
        1.0
      ],
      "type": "MAT4"
    },
    {
      "bufferView": 0,
      "componentType": 5123,
      "count": 4717,
      "type": "VEC4"
    },
    {
      "bufferView": 4,
      "componentType": 5126,
      "count": 4717,
      "max": [
        1.0,
        0.4990667402744293,
        0.0,
        0.0
      ],
      "min": [
        0.5009332895278931,
        0.0,
        0.0,
        0.0
      ],
      "type": "VEC4"
    },
    {
      "bufferView": 6,
      "componentType": 5126,
      "count": 90,
      "max": [
        3.75
      ],
      "min": [
        0.0416666679084301
      ],
      "type": "SCALAR"
    },
    {
      "bufferView": 7,
      "componentType": 5126,
      "count": 90,
      "max": [
        8.04041846436121e-08,
        3.1944589614868164,
        3.334490727979755e-08
      ],
      "min": [
        8.04041846436121e-08,
        2.235678195953369,
        3.334490727979755e-08
      ],
      "type": "VEC3"
    },
    {
      "bufferView": 6,
      "byteOffset": 360,
      "componentType": 5126,
      "count": 90,
      "max": [
        3.75
      ],
      "min": [
        0.0416666679084301
      ],
      "type": "SCALAR"
    },
    {
      "bufferView": 7,
      "byteOffset": 1080,
      "componentType": 5126,
      "count": 90,
      "max": [
        0.0,
        2.443117141723633,
        0.0
      ],
      "min": [
        0.0,
        1.4843363761901855,
        0.0
      ],
      "type": "VEC3"
    }
  ],
  "animations": [
    {
      "channels": [
        {
          "sampler": 0,
          "target": {
            "node": 7,
            "path": "translation"
          }
        },
        {
          "sampler": 1,
          "target": {
            "node": 23,
            "path": "translation"
          }
        }
      ],
      "name": "Animation",
      "samplers": [
        {
          "input": 39,
          "interpolation": "LINEAR",
          "output": 40
        },
        {
          "input": 41,
          "interpolation": "LINEAR",
          "output": 42
        }
      ]
    }
  ],
  "asset": {
    "extras": {
      "author": "Belzar Sirus (https://sketchfab.com/belzar.sirus)",
      "license": "CC-BY-4.0 (http://creativecommons.org/licenses/by/4.0/)",
      "source": "https://sketchfab.com/3d-models/blender-spring-addon-demo-bd1b9515741b4e82b76c5767feb7b88e",
      "title": "Blender Spring Addon Demo"
    },
    "generator": "Sketchfab-12.66.0",
    "version": "2.0"
  },
  "bufferViews": [
    {
      "buffer": 0,
      "byteLength": 37736,
      "byteStride": 8,
      "name": "shortBufferViews",
      "target": 34962
    },
    {
      "buffer": 0,
      "byteLength": 240312,
      "byteOffset": 37736,
      "name": "floatBufferViews",
      "target": 34963
    },
    {
      "buffer": 0,
      "byteLength": 137472,
      "byteOffset": 278048,
      "byteStride": 8,
      "name": "floatBufferViews",
      "target": 34962
    },
    {
      "buffer": 0,
      "byteLength": 412416,
      "byteOffset": 415520,
      "byteStride": 12,
      "name": "floatBufferViews",
      "target": 34962
    },
    {
      "buffer": 0,
      "byteLength": 75472,
      "byteOffset": 827936,
      "byteStride": 16,
      "name": "floatBufferViews",
      "target": 34962
    },
    {
      "buffer": 0,
      "byteLength": 192,
      "byteOffset": 903408,
      "name": "floatBufferViews"
    },
    {
      "buffer": 0,
      "byteLength": 720,
      "byteOffset": 903600,
      "name": "floatBufferViews"
    },
    {
      "buffer": 0,
      "byteLength": 2160,
      "byteOffset": 904320,
      "byteStride": 12,
      "name": "floatBufferViews"
    }
  ],
  "buffers": [
    {
      "byteLength": 906480,
      "uri": "scene.bin"
    }
  ],
  "materials": [
    {
      "doubleSided": true,
      "name": "Copper",
      "pbrMetallicRoughness": {
        "baseColorFactor": [
          0.667162779707386,
          0.42311633762841827,
          0.23836019132363337,
          1.0
        ],
        "roughnessFactor": 0.12331351196882087
      }
    },
    {
      "doubleSided": true,
      "name": "Plastic",
      "pbrMetallicRoughness": {
        "baseColorFactor": [
          0.0188481,
          0.0188481,
          0.0188481,
          1.0
        ],
        "metallicFactor": 0.0,
        "roughnessFactor": 0.8375
      }
    },
    {
      "doubleSided": true,
      "name": "Chrome",
      "pbrMetallicRoughness": {
        "baseColorFactor": [
          0.8,
          0.8,
          0.8,
          1.0
        ],
        "roughnessFactor": 0.127451
      }
    },
    {
      "doubleSided": true,
      "name": "Paint",
      "pbrMetallicRoughness": {
        "baseColorFactor": [
          0.259797,
          0.00637141,
          0.0196688,
          1.0
        ],
        "metallicFactor": 0.0,
        "roughnessFactor": 0.199346
      }
    }
  ],
  "meshes": [
    {
      "name": "Object_0",
      "primitives": [
        {
          "attributes": {
            "NORMAL": 1,
            "POSITION": 0,
            "TEXCOORD_0": 2
          },
          "indices": 3,
          "material": 0,
          "mode": 4
        }
      ]
    },
    {
      "name": "Object_1",
      "primitives": [
        {
          "attributes": {
            "NORMAL": 5,
            "POSITION": 4,
            "TEXCOORD_0": 6
          },
          "indices": 7,
          "material": 1,
          "mode": 4
        }
      ]
    },
    {
      "name": "Object_2",
      "primitives": [
        {
          "attributes": {
            "NORMAL": 9,
            "POSITION": 8,
            "TEXCOORD_0": 10
          },
          "indices": 11,
          "material": 0,
          "mode": 4
        }
      ]
    },
    {
      "name": "Object_3",
      "primitives": [
        {
          "attributes": {
            "NORMAL": 13,
            "POSITION": 12,
            "TEXCOORD_0": 14
          },
          "indices": 15,
          "material": 1,
          "mode": 4
        }
      ]
    },
    {
      "name": "Object_4",
      "primitives": [
        {
          "attributes": {
            "NORMAL": 17,
            "POSITION": 16,
            "TEXCOORD_0": 18
          },
          "indices": 19,
          "material": 0,
          "mode": 4
        }
      ]
    },
    {
      "name": "Object_5",
      "primitives": [
        {
          "attributes": {
            "NORMAL": 21,
            "POSITION": 20,
            "TEXCOORD_0": 22
          },
          "indices": 23,
          "material": 0,
          "mode": 4
        }
      ]
    },
    {
      "name": "Object_6",
      "primitives": [
        {
          "attributes": {
            "NORMAL": 25,
            "POSITION": 24,
            "TEXCOORD_0": 26
          },
          "indices": 27,
          "material": 1,
          "mode": 4
        }
      ]
    },
    {
      "name": "Object_7",
      "primitives": [
        {
          "attributes": {
            "NORMAL": 29,
            "POSITION": 28,
            "TEXCOORD_0": 30
          },
          "indices": 31,
          "material": 2,
          "mode": 4
        }
      ]
    },
    {
      "name": "Object_8",
      "primitives": [
        {
          "attributes": {
            "JOINTS_0": 37,
            "NORMAL": 33,
            "POSITION": 32,
            "TEXCOORD_0": 34,
            "WEIGHTS_0": 38
          },
          "indices": 35,
          "material": 3,
          "mode": 4
        }
      ]
    }
  ],
  "nodes": [
    {
      "children": [
        1
      ],
      "matrix": [
        0.47829732298851013,
        0.0,
        0.0,
        0.0,
        0.0,
        1.0620334011968383e-16,
        -0.47829732298851013,
        0.0,
        0.0,
        0.47829732298851013,
        1.0620334011968383e-16,
        0.0,
        0.0,
        0.0,
        0.0,
        1.0
      ],
      "name": "Sketchfab_model"
    },
    {
      "children": [
        2
      ],
      "name": "root"
    },
    {
      "children": [
        3,
        5,
        7,
        14,
        17
      ],
      "matrix": [
        1.0,
        0.0,
        0.0,
        0.0,
        0.0,
        2.220446049250313e-16,
        1.0,
        0.0,
        0.0,
        -1.0,
        2.220446049250313e-16,
        0.0,
        0.0,
        0.0,
        0.0,
        1.0
      ],
      "name": "GLTF_SceneRootNode"
    },
    {
      "children": [
        4
      ],
      "name": "Sphere_0"
    },
    {
      "mesh": 0,
      "name": "Object_4"
    },
    {
      "children": [
        6
      ],
      "name": "Sphere.003_1"
    },
    {
      "mesh": 1,
      "name": "Object_6"
    },
    {
      "children": [
        8,
        9,
        10,
        12
      ],
      "name": "Cylinder_5",
      "translation": [
        0.0,
        3.1933236122131348,
        0.0
      ]
    },
    {
      "mesh": 2,
      "name": "Object_8"
    },
    {
      "mesh": 3,
      "name": "Object_9"
    },
    {
      "children": [
        11
      ],
      "matrix": [
        1.0,
        0.0,
        0.0,
        0.0,
        0.0,
        1.0,
        0.0,
        0.0,
        0.0,
        0.0,
        1.0,
        0.0,
        0.0,
        -0.9080817699432373,
        0.0,
        1.0
      ],
      "name": "SpringRig_2"
    },
    {
      "mesh": 4,
      "name": "Object_11"
    },
    {
      "children": [
        13
      ],
      "matrix": [
        1.0,
        0.0,
        0.0,
        0.0,
        0.0,
        1.0,
        0.0,
        0.0,
        0.0,
        0.0,
        1.0,
        0.0,
        0.0,
        -0.19815683364868164,
        0.0,
        1.0
      ],
      "name": "SpringRig.004_4"
    },
    {
      "mesh": 5,
      "name": "Object_13"
    },
    {
      "children": [
        15,
        16
      ],
      "name": "Sphere.008_6"
    },
    {
      "mesh": 6,
      "name": "Object_15"
    },
    {
      "mesh": 7,
      "name": "Object_16"
    },
    {
      "children": [
        18
      ],
      "matrix": [
        1.0,
        0.0,
        0.0,
        0.0,
        0.0,
        1.0,
        0.0,
        0.0,
        0.0,
        0.0,
        1.0,
        0.0,
        0.0,
        0.47582244873046875,
        0.0,
        1.0
      ],
      "name": "SpringRigArmature.002_10"
    },
    {
      "children": [
        19,
        21,
        20
      ],
      "name": "GLTF_created_0"
    },
    {
      "children": [
        22
      ],
      "name": "GLTF_created_0_rootJoint"
    },
    {
      "name": "SpringRig.011_9"
    },
    {
      "mesh": 8,
      "name": "Object_21",
      "skin": 0
    },
    {
      "children": [
        23
      ],
      "name": "SpringRig.011_Base_Bone_8"
    },
    {
      "name": "SpringRig.011_Top_Bone_7",
      "rotation": [
        1.0,
        0.0,
        -4.371138828673793e-08,
        0.0
      ],
      "translation": [
        0.0,
        2.441981792449951,
        0.0
      ]
    }
  ],
  "scene": 0,
  "scenes": [
    {
      "name": "Sketchfab_Scene",
      "nodes": [
        0
      ]
    }
  ],
  "skins": [
    {
      "inverseBindMatrices": 36,
      "joints": [
        19,
        22,
        23
      ],
      "skeleton": 19
    }
  ]
}
